PathFileType	4	(X/Y/Z)	22_2_27_p1_0-244_filt_butterworth.trc
DataRate	CameraRate	NumFrames	NumMarkers	Units	OrigDataRate	OrigDataStartFrame	OrigNumFrames
60.0	60.0	6	27	m	60.0	122	244
Frame#	Time	RHip			RKnee			RAnkle			RBigToe			RSmallToe			RHeel			LHip			LKnee			LAnkle			LBigToe			LSmallToe			LHeel			Neck			Head			Nose			RShoulder			RElbow			RWrist			RThumb			RIndex			RPinky			LShoulder			LElbow			LWrist			LThumb			LIndex			LPinky			
		X1	Y1	Z1	X2	Y2	Z2	X3	Y3	Z3	X4	Y4	Z4	X5	Y5	Z5	X6	Y6	Z6	X7	Y7	Z7	X8	Y8	Z8	X9	Y9	Z9	X10	Y10	Z10	X11	Y11	Z11	X12	Y12	Z12	X13	Y13	Z13	X14	Y14	Z14	X15	Y15	Z15	X16	Y16	Z16	X17	Y17	Z17	X18	Y18	Z18	X19	Y19	Z19	X20	Y20	Z20	X21	Y21	Z21	X22	Y22	Z22	X23	Y23	Z23	X24	Y24	Z24	X25	Y25	Z25	X26	Y26	Z26	X27	Y27	Z27	
122	2.033333333333333	0.267900631891422	0.6285497030553404	1.0458234203205317	0.2678422754999967	0.7506051809498548	1.4283099104067085	0.2953435644319032	0.9448228287827596	1.8341309199032345	0.2503506280489003	0.7107263214187827	1.8743431221543077	0.3093721886937075	0.7578620707308512	1.8812723609722704	0.29329604686807725	1.0207834093244914	1.8780131571017544	0.0484572237746885	0.660435817803707	1.0596080659176124	0.07941798633233146	0.7988779916549362	1.4396730045961625	0.09505102495989567	0.9028232690222333	1.8179332555896122	0.097550006800039	0.7436497380755113	1.8800634193563257	0.05056824156692628	0.7874273218363633	1.8812624872204884	0.13307408066112744	0.9794670336253141	1.8728911340416465	0.0999838422289543	0.46172304945052167	0.4940167115432428	0.07745640563637109	0.3249478476958188	0.2624507241867807	0.07473392036113694	0.3306054030870153	0.41896523564419785	0.25621665079415185	0.45649406892091293	0.5440426920750278	0.30080379087437453	0.4015382160769866	0.7966677151840625	0.16475352991384662	0.3510804289032898	0.662229770595868	0.08478402401656537	0.3438883188310988	0.5548914867076566	0.07896843114698933	0.30848861397652205	0.558923960825037	0.08212342069036277	0.3229400320777129	0.6128243961857667	-0.045505261438203076	0.48936834764355025	0.5709550060519067	-0.07151899843116151	0.6043809032739311	0.8370022412790066	-0.03615972553679926	0.5604830749858388	1.076176939601722	0.029150038117874574	0.5111278947041865	1.168144457995454	0.015448741906043947	0.5097943195342586	1.2006154438140946	-0.04178549861843591	0.5695028560082641	1.197172790944267
123	2.05	0.26791025436877874	0.6284846639726075	1.0458121769606255	0.267953002897578	0.7502567591298144	1.4272139205843546	0.29536854652734906	0.9448126869666724	1.8340087197189296	0.24972737990008273	0.7092039676557971	1.8738056172985773	0.30924175430153555	0.7575175814787869	1.881174855717479	0.29484500814780157	1.0245760756521745	1.8791763232958498	0.04848803153763579	0.66031569732046	1.0595736153716109	0.07959785054101175	0.7984278634051105	1.4381738803405104	0.09449119101771879	0.901603467998966	1.8158197974584562	0.09781699990149485	0.7429950300367919	1.878747233326982	0.05067330837828057	0.7871671810466502	1.8811222538057537	0.13308163298018114	0.9796225853576941	1.8725440029269245	0.09927331527740378	0.4652164627533348	0.49375691764083385	0.07765413643200637	0.32493865187150045	0.2617653441423559	0.07476904814912648	0.33033183296929836	0.41895506002584176	0.25617116270994283	0.45651733508025943	0.5436795406627304	0.3007844296817918	0.401578859546928	0.7970879953638454	0.1646483084190615	0.35068451778097054	0.6597405214752724	0.08482510082891948	0.3436706767257101	0.553940842352034	0.07852369795371128	0.308608117838857	0.5587370634777645	0.08144929707062812	0.3262278792827544	0.6126909258869527	-0.045558622325673925	0.4893735619680705	0.5709673087484605	-0.07163219543402193	0.6044144310128485	0.8357661802278282	-0.03520393684577195	0.5603147887939981	1.0761170296282885	0.029690387778387197	0.5065232266954003	1.1680321062614392	0.018832031397673088	0.51110520860392	1.2026427483395439	-0.039777184899453324	0.5754136716684127	1.1992358019028615
124	2.066666666666667	0.2679110762646504	0.6284471649635563	1.045781108628302	0.2681131913758615	0.7497894891316101	1.4256543590477582	0.29538478973156174	0.9447841895830112	1.8339393358170593	0.24823519709118916	0.7055825169324219	1.872529904520343	0.3090692484593573	0.7571976269090389	1.881107013774662	0.29547887982637966	1.0260656756195985	1.8795870846642828	0.048476174739131246	0.6603597612507233	1.0586914625053963	0.07980828742387529	0.7980378388154067	1.4369438040597013	0.09399299319367282	0.9003548265494841	1.8141710244761597	0.09795073346742447	0.742441051593316	1.877501338466015	0.050758385792251864	0.7867511787798109	1.8809227464368958	0.13287796492832687	0.9792143161354244	1.871386943085513	0.09834546571853622	0.46976852779050293	0.49341458736810084	0.07716004707634942	0.32493609704716137	0.26110669589728885	0.07476826705584698	0.3301659818883164	0.4189282220250752	0.2560769391805604	0.45653208524124755	0.5427638152566552	0.3007506296034139	0.40170872687947634	0.7981238108180586	0.16468278240766449	0.35063304426217085	0.6578884373394679	0.08488081385771963	0.34354809300562933	0.5532466053364411	0.07839932650266797	0.3083617643737038	0.5586608524376969	0.08056956513846848	0.3300926534937969	0.6125431288261804	-0.04563370819546548	0.4893550346839102	0.5709769990441336	-0.07176604509315822	0.6045016508842589	0.8349644693837761	-0.03384439839389308	0.5604615093069364	1.076049569194903	0.030536857557354163	0.5028213335248269	1.1668071256644637	0.021001451239229856	0.5116422885040552	1.2023566466942093	-0.03795949837491992	0.580746917843484	1.2010050941372312
125	2.083333333333333	0.2679075622404138	0.6284389037979133	1.0457517985480467	0.26823083833074995	0.7494566257407707	1.4244567931258103	0.2953892220468337	0.9447396390028736	1.8339272731485976	0.24628034904336907	0.7008644758640538	1.8708797779179327	0.30889509353049577	0.7569683635318258	1.8810783719533601	0.2954955039293281	1.0260334303084966	1.87951686951923	0.04845733326715186	0.6604500523032952	1.0574227440779276	0.07993170252058646	0.797843101975228	1.436468795586314	0.09386028622447644	0.8997609947301684	1.8138836840563313	0.0978516024602555	0.7422221205062489	1.8767215569089326	0.050788647711891864	0.7864829350258172	1.8808001086643724	0.1325136614561602	0.9783060701670772	1.8697162132758494	0.0976488886346696	0.4732016382409606	0.4931298809656952	0.07684610695243688	0.32499197942658514	0.2606743836250217	0.07476175656233047	0.3301652666206302	0.41891510423547923	0.2559544989291362	0.4565515290747893	0.5415675680315578	0.30070688467060847	0.4019050966188691	0.799425494557344	0.16479441283069807	0.3508243987467331	0.6571157513635006	0.084931172662587	0.34353382244322833	0.5529802964212704	0.07845729238900878	0.3081634003795805	0.5586535927830175	0.07989799434371819	0.33288227012926985	0.6124279762769576	-0.045685707085457536	0.4893251234832257	0.5709761799431937	-0.0718823338954822	0.6045709188422265	0.834625446677166	-0.03237059216860247	0.5618585199292807	1.0760821391187592	0.03135841381054938	0.5009110687285662	1.164792400872578	0.021446128002296148	0.5108785823368788	1.199358352758255	-0.03640720375590652	0.5854728610168237	1.202099481714862
126	2.1	0.2679025653387199	0.6284765629308784	1.0457521971223276	0.2682704963602107	0.7493540263047203	1.4239868985845832	0.295386288424725	0.9446771297524237	1.8339347586607069	0.24478240053314793	0.697277851532139	1.8696352657725153	0.30874978327541847	0.7567825990150129	1.8810624096469237	0.29534801260960497	1.0257083254448536	1.8794837881432098	0.04844542323764952	0.6605190460737103	1.0564396745848001	0.07994177865825855	0.797805673985989	1.4365012050945958	0.09447882465492954	0.9010105387224976	1.8153443388362602	0.09761968209286827	0.742407675873445	1.8767798554125648	0.050777243054362285	0.7865422840635738	1.88082731759842	0.13222127470276882	0.9775545459727925	1.868510912370283	0.09739285745332237	0.4745722926184408	0.4929642653357812	0.07747753389754072	0.3250152828448983	0.2606554686711129	0.07477379987034696	0.3302402086072105	0.41893610289184124	0.25585476406095525	0.4565805296103541	0.5406618480990281	0.30067193591009445	0.40206033592168083	0.8004012471255506	0.16479245938144205	0.3508079319195796	0.6570557452659475	0.08496293864087419	0.3435551572467035	0.5529734441394175	0.07854200671351343	0.3080970039026392	0.5586631455931353	0.0796387121310137	0.33391349714092383	0.6123090328690971	-0.04568916721695483	0.48929376610976233	0.5709579517229073	-0.07200548237286664	0.6044955401688481	0.8341991170020832	-0.03071969231115377	0.5652110162925438	1.0762829247932453	0.03177441010748086	0.5001268577704969	1.1627889891544565	0.020769826475093102	0.5092061703942546	1.1951844475554014	-0.035523962656921065	0.5885113380095198	1.2021516047160912
127	2.1166666666666667	0.26789976432551793	0.6285644184109487	1.0458105916358382	0.2682730647675458	0.7494045813585698	1.4241309342085828	0.2953789923309752	0.9446081254821881	1.8339605953525597	0.24417173020967645	0.6958167143320271	1.8691415388912374	0.3086646573191187	0.7566039286224556	1.88103636959255	0.2952456810138363	1.025782864852111	1.879949342586923	0.04844310916728821	0.660569096197771	1.056005447339454	0.07988463407272359	0.7978511767481103	1.4366436708900092	0.09611464068622416	0.9051531820477876	1.8182386678063742	0.09742664551289758	0.7429566634582897	1.8779411662321148	0.050757409362391114	0.7868429539965218	1.8809618217990818	0.13220790012702466	0.9775388673034071	1.868536588006332	0.09743339164874014	0.4746260016596423	0.4928720123384428	0.07891739945571008	0.32492906069653477	0.2609795224605013	0.0747711140071469	0.3302345683938728	0.41889717512913055	0.2558049950223938	0.45660669245207086	0.540303666463185	0.30065505573593126	0.40212424200530283	0.80080379946551	0.16432038836860877	0.3497313354514248	0.6572562580156268	0.08497187992561614	0.3435205262974318	0.5530390955627295	0.07858995616765532	0.3080840053303509	0.5586800418182839	0.07961226633362675	0.3337542431544533	0.6121123289329237	-0.04565970828868209	0.4892830996609141	0.5709244045785599	-0.07219175725109224	0.6041633847531545	0.8332046704827882	-0.028845487757605242	0.5696020187318728	1.0765554066750127	0.031749277744090136	0.499746405407046	1.161534673033239	0.01987181817877947	0.5074886557391819	1.191695000333456	-0.03546965533635792	0.5893230606614873	1.2010063038527368
